<svg xmlns="http://www.w3.org/2000/svg" fill="none" viewBox="0 0 128 128"><g id="fire-alert__fire-alert" clip-path="url(#fire-alert__clip0_3111_28370)"><g id="fire-alert__Mask group"><mask id="fire-alert__mask0_3111_28370" width="128" height="128" x="0" y="0" maskUnits="userSpaceOnUse" style="mask-type:alpha"><path id="fire-alert__Alert Mask" fill="#000" fill-rule="evenodd" d="M128 128H0V0h128zM97.196 67c-2.31-4-8.083-4-10.392 0L74.68 88c-2.31 4 .577 9 5.196 9h24.248c4.619 0 7.506-5 5.196-9z" clip-rule="evenodd"/></mask><g mask="url(#fire-alert__mask0_3111_28370)"><g id="fire-alert__Fire"><path id="fire-alert__Vector" fill="url(#fire-alert__paint0_linear_3111_28370)" stroke="#f97316" d="M55.91 28.08a2.674 2.674 0 0 1 3.323 0l.195.17c1.624 1.555 3.081 3.277 4.497 5.04v.001a75 75 0 0 1 4.406 6.07c.989 1.516 3.199 1.639 4.342.229.153-.184.304-.38.45-.567.534-.673 1.097-1.382 1.733-1.93.634-.545 1.288-.881 1.998-.881.734 0 1.386.328 2.007.861.626.538 1.179 1.245 1.72 1.945q.265.354.533.669a64 64 0 0 1 5.011 7.074c3.62 5.932 7.375 14.343 7.375 23.764 0 16.56-13.22 29.975-29.507 29.975S34.5 87.1 34.5 70.54c0-12.249 5.444-22.882 10.692-30.323v-.001a76 76 0 0 1 7.266-8.796v-.001c1.095-1.14 2.19-2.25 3.371-3.251a.5.5 0 0 0 .08-.088Zm3.254 30.78c-.889-1.153-2.548-1.369-3.626-.31v.002c-2.47 2.438-7.048 7.87-7.048 14.545 0 4.794 1.745 8.645 4.606 11.295 2.856 2.644 6.79 4.061 11.125 4.061h.013c3.493 0 6.59-.984 9.497-2.942l.01-.007c5.775-4.097 7.36-12.189 4.074-18.624l-.16-.306c-.79-1.578-2.77-1.62-3.836-.357l-3.376 3.985a1.627 1.627 0 0 1-2.406.094l-.125-.144c-2.318-3.007-6.579-8.492-8.748-11.293Z"/><path id="fire-alert__Vector_2" fill="url(#fire-alert__paint1_linear_3111_28370)" d="M64.234 87.953c3.39 0 6.39-.952 9.217-2.857 5.64-4 7.153-11.999 3.764-18.284-.603-1.225-2.143-1.306-3.014-.272l-3.376 3.986a2.126 2.126 0 0 1-3.309-.068c-2.317-3.007-6.577-8.49-8.747-11.292-.724-.939-2.036-1.088-2.88-.259-2.452 2.422-6.9 7.728-6.9 14.19 0 9.333 6.78 14.856 15.232 14.856z"/></g></g></g><g id="fire-alert__Alert"><path id="fire-alert__Exclamation" fill="url(#fire-alert__paint2_linear_3111_28370)" stroke="#202939" d="M89.835 68.75c.962-1.667 3.368-1.667 4.33 0l12.124 21c.962 1.667-.24 3.75-2.165 3.75H79.876c-1.865 0-3.052-1.955-2.249-3.593l.084-.157z"/><path id="fire-alert__ExclamationMark" fill="#fff" d="M92.758 84.59h-1.494l-.846-5.022v-3.384h3.168v3.384zm.846 4.41H90.4v-3.006h3.204z"/><animate attributeName="opacity" begin="0s" dur="1s" keyTimes="0;0.294;0.5;0.794;1" repeatCount="indefinite" values="1;1;0;0;1"/></g></g><defs><linearGradient id="fire-alert__paint0_linear_3111_28370" x1="64" x2="64" y1="33.329" y2="82.013" gradientUnits="userSpaceOnUse"><stop stop-color="#fb923c"/><stop offset="1" stop-color="#f97316"/></linearGradient><linearGradient id="fire-alert__paint1_linear_3111_28370" x1="63.998" x2="63.998" y1="60.895" y2="80.361" gradientUnits="userSpaceOnUse"><stop stop-color="#fde047"/><stop offset="1" stop-color="#facc15"/></linearGradient><linearGradient id="fire-alert__paint2_linear_3111_28370" x1="92" x2="92" y1="67" y2="94" gradientUnits="userSpaceOnUse"><stop stop-color="#364d6e"/><stop offset="1" stop-color="#202939"/></linearGradient><clipPath id="fire-alert__clip0_3111_28370"><rect width="128" height="128" fill="#fff"/></clipPath></defs></svg>